<svg data-v-423bf9ae="" xmlns="http://www.w3.org/2000/svg" viewBox="0 0 395 90" class="iconLeft"><!----><!----><!----><g data-v-423bf9ae="" id="0f4b7180-c083-42e2-ba24-20a29fb4154f" fill="#ffffff" transform="matrix(5.791505450303629,0,0,5.791505450303629,140.27948365847257,-0.8108095129559487)"><path d="M1.15 4.80L1.15 4.80Q0.99 4.80 0.90 4.70L0.90 4.70L0.90 4.70Q0.80 4.59 0.80 4.44L0.80 4.44L0.80 3.14L0.80 3.14Q0.80 2.98 0.90 2.88L0.90 2.88L0.90 2.88Q1.01 2.77 1.15 2.77L1.15 2.77L2.90 2.77L2.90 2.77Q3.05 2.77 3.16 2.88L3.16 2.88L3.16 2.88Q3.26 2.98 3.26 3.14L3.26 3.14L3.26 4.44L3.26 4.44Q3.26 4.59 3.16 4.70L3.16 4.70L3.16 4.70Q3.05 4.80 2.90 4.80L2.90 4.80L1.15 4.80ZM1.15 13.09L1.15 13.09Q1.01 13.09 0.90 12.98L0.90 12.98L0.90 12.98Q0.80 12.88 0.80 12.74L0.80 12.74L0.80 6.16L0.80 6.16Q0.80 6.01 0.90 5.91L0.90 5.91L0.90 5.91Q1.01 5.81 1.15 5.81L1.15 5.81L2.90 5.81L2.90 5.81Q3.05 5.81 3.16 5.91L3.16 5.91L3.16 5.91Q3.26 6.01 3.26 6.16L3.26 6.16L3.26 12.74L3.26 12.74Q3.26 12.89 3.16 12.99L3.16 12.99L3.16 12.99Q3.05 13.09 2.90 13.09L2.90 13.09L1.15 13.09ZM5.21 13.09L5.21 13.09Q5.07 13.09 4.96 12.98L4.96 12.98L4.96 12.98Q4.86 12.88 4.86 12.74L4.86 12.74L4.86 6.16L4.86 6.16Q4.86 6.01 4.96 5.91L4.96 5.91L4.96 5.91Q5.07 5.81 5.21 5.81L5.21 5.81L6.93 5.81L6.93 5.81Q7.08 5.81 7.18 5.91L7.18 5.91L7.18 5.91Q7.28 6.01 7.28 6.16L7.28 6.16L7.28 6.69L7.28 6.69Q7.66 6.23 8.25 5.95L8.25 5.95L8.25 5.95Q8.85 5.67 9.62 5.67L9.62 5.67L9.62 5.67Q10.42 5.67 11.04 6.03L11.04 6.03L11.04 6.03Q11.66 6.40 12.02 7.11L12.02 7.11L12.02 7.11Q12.38 7.83 12.38 8.83L12.38 8.83L12.38 12.74L12.38 12.74Q12.38 12.88 12.28 12.98L12.28 12.98L12.28 12.98Q12.18 13.09 12.03 13.09L12.03 13.09L10.16 13.09L10.16 13.09Q10.01 13.09 9.91 12.99L9.91 12.99L9.91 12.99Q9.80 12.89 9.80 12.74L9.80 12.74L9.80 8.92L9.80 8.92Q9.80 8.29 9.50 7.95L9.50 7.95L9.50 7.95Q9.20 7.62 8.62 7.62L8.62 7.62L8.62 7.62Q8.06 7.62 7.74 7.96L7.74 7.96L7.74 7.96Q7.42 8.30 7.42 8.92L7.42 8.92L7.42 12.74L7.42 12.74Q7.42 12.88 7.32 12.98L7.32 12.98L7.32 12.98Q7.22 13.09 7.07 13.09L7.07 13.09L5.21 13.09ZM14.27 13.09L14.27 13.09Q14.11 13.09 14.01 12.99L14.01 12.99L14.01 12.99Q13.90 12.89 13.90 12.74L13.90 12.74L13.90 3.50L13.90 3.50Q13.90 3.35 14.01 3.25L14.01 3.25L14.01 3.25Q14.11 3.15 14.27 3.15L14.27 3.15L15.97 3.15L15.97 3.15Q16.13 3.15 16.23 3.25L16.23 3.25L16.23 3.25Q16.32 3.35 16.32 3.50L16.32 3.50L16.32 8.18L18.19 6.05L18.19 6.05Q18.21 6.02 18.29 5.95L18.29 5.95L18.29 5.95Q18.37 5.88 18.45 5.84L18.45 5.84L18.45 5.84Q18.54 5.81 18.66 5.81L18.66 5.81L20.64 5.81L20.64 5.81Q20.76 5.81 20.85 5.90L20.85 5.90L20.85 5.90Q20.94 5.99 20.94 6.13L20.94 6.13L20.94 6.13Q20.94 6.26 20.85 6.36L20.85 6.36L18.38 9.07L21.20 12.56L21.20 12.56Q21.29 12.68 21.29 12.77L21.29 12.77L21.29 12.77Q21.29 12.91 21.20 13.00L21.20 13.00L21.20 13.00Q21.11 13.09 20.97 13.09L20.97 13.09L18.94 13.09L18.94 13.09Q18.76 13.09 18.67 13.03L18.67 13.03L18.67 13.03Q18.58 12.98 18.45 12.85L18.45 12.85L16.32 10.22L16.32 12.74L16.32 12.74Q16.32 12.88 16.23 12.98L16.23 12.98L16.23 12.98Q16.13 13.09 15.97 13.09L15.97 13.09L14.27 13.09ZM23.38 13.09L23.38 13.09Q23.23 13.09 23.12 12.99L23.12 12.99L23.12 12.99Q23.02 12.89 23.02 12.74L23.02 12.74L23.02 7.71L21.97 7.71L21.97 7.71Q21.81 7.71 21.71 7.62L21.71 7.62L21.71 7.62Q21.60 7.52 21.60 7.36L21.60 7.36L21.60 6.16L21.60 6.16Q21.60 6.01 21.71 5.91L21.71 5.91L21.71 5.91Q21.81 5.81 21.97 5.81L21.97 5.81L23.02 5.81L23.02 5.39L23.02 5.39Q23.02 3.99 23.83 3.36L23.83 3.36L23.83 3.36Q24.64 2.73 26.15 2.73L26.15 2.73L27.26 2.73L27.26 2.73Q27.41 2.73 27.52 2.83L27.52 2.83L27.52 2.83Q27.62 2.93 27.62 3.08L27.62 3.08L27.62 4.28L27.62 4.28Q27.62 4.44 27.52 4.54L27.52 4.54L27.52 4.54Q27.41 4.63 27.26 4.63L27.26 4.63L26.26 4.63L26.26 4.63Q25.82 4.63 25.63 4.84L25.63 4.84L25.63 4.84Q25.44 5.04 25.44 5.46L25.44 5.46L25.44 5.81L27.12 5.81L27.12 5.81Q27.27 5.81 27.38 5.91L27.38 5.91L27.38 5.91Q27.48 6.01 27.48 6.16L27.48 6.16L27.48 7.36L27.48 7.36Q27.48 7.52 27.38 7.62L27.38 7.62L27.38 7.62Q27.27 7.71 27.12 7.71L27.12 7.71L25.44 7.71L25.44 12.74L25.44 12.74Q25.44 12.88 25.34 12.98L25.34 12.98L25.34 12.98Q25.24 13.09 25.09 13.09L25.09 13.09L23.38 13.09ZM28.81 13.09L28.81 13.09Q28.66 13.09 28.55 12.99L28.55 12.99L28.55 12.99Q28.45 12.89 28.45 12.74L28.45 12.74L28.45 3.50L28.45 3.50Q28.45 3.35 28.55 3.25L28.55 3.25L28.55 3.25Q28.66 3.15 28.81 3.15L28.81 3.15L30.56 3.15L30.56 3.15Q30.72 3.15 30.81 3.25L30.81 3.25L30.81 3.25Q30.91 3.35 30.91 3.50L30.91 3.50L30.91 12.74L30.91 12.74Q30.91 12.88 30.81 12.98L30.81 12.98L30.81 12.98Q30.72 13.09 30.56 13.09L30.56 13.09L28.81 13.09ZM32.86 4.80L32.86 4.80Q32.70 4.80 32.61 4.70L32.61 4.70L32.61 4.70Q32.51 4.59 32.51 4.44L32.51 4.44L32.51 3.14L32.51 3.14Q32.51 2.98 32.61 2.88L32.61 2.88L32.61 2.88Q32.72 2.77 32.86 2.77L32.86 2.77L34.61 2.77L34.61 2.77Q34.76 2.77 34.87 2.88L34.87 2.88L34.87 2.88Q34.97 2.98 34.97 3.14L34.97 3.14L34.97 4.44L34.97 4.44Q34.97 4.59 34.87 4.70L34.87 4.70L34.87 4.70Q34.76 4.80 34.61 4.80L34.61 4.80L32.86 4.80ZM32.86 13.09L32.86 13.09Q32.72 13.09 32.61 12.98L32.61 12.98L32.61 12.98Q32.51 12.88 32.51 12.74L32.51 12.74L32.51 6.16L32.51 6.16Q32.51 6.01 32.61 5.91L32.61 5.91L32.61 5.91Q32.72 5.81 32.86 5.81L32.86 5.81L34.61 5.81L34.61 5.81Q34.76 5.81 34.87 5.91L34.87 5.91L34.87 5.91Q34.97 6.01 34.97 6.16L34.97 6.16L34.97 12.74L34.97 12.74Q34.97 12.89 34.87 12.99L34.87 12.99L34.87 12.99Q34.76 13.09 34.61 13.09L34.61 13.09L32.86 13.09ZM36.29 13.09L36.29 13.09Q36.16 13.09 36.06 13.00L36.06 13.00L36.06 13.00Q35.97 12.91 35.97 12.77L35.97 12.77L35.97 12.77Q35.97 12.66 36.05 12.56L36.05 12.56L38.37 9.35L36.26 6.34L36.26 6.34Q36.18 6.23 36.18 6.13L36.18 6.13L36.18 6.13Q36.18 5.99 36.27 5.90L36.27 5.90L36.27 5.90Q36.37 5.81 36.50 5.81L36.50 5.81L38.30 5.81L38.30 5.81Q38.47 5.81 38.56 5.88L38.56 5.88L38.56 5.88Q38.64 5.95 38.72 6.06L38.72 6.06L39.96 7.78L41.20 6.06L41.20 6.06Q41.22 6.05 41.27 5.98L41.27 5.98L41.27 5.98Q41.33 5.91 41.42 5.86L41.42 5.86L41.42 5.86Q41.51 5.81 41.62 5.81L41.62 5.81L43.34 5.81L43.34 5.81Q43.47 5.81 43.57 5.90L43.57 5.90L43.57 5.90Q43.67 5.99 43.67 6.12L43.67 6.12L43.67 6.12Q43.67 6.23 43.58 6.34L43.58 6.34L41.43 9.35L43.79 12.56L43.79 12.56Q43.86 12.66 43.86 12.77L43.86 12.77L43.86 12.77Q43.86 12.91 43.77 13.00L43.77 13.00L43.77 13.00Q43.68 13.09 43.54 13.09L43.54 13.09L41.65 13.09L41.65 13.09Q41.41 13.09 41.26 12.87L41.26 12.87L39.90 11.02L38.53 12.87L38.53 12.87Q38.44 12.98 38.36 13.03L38.36 13.03L38.36 13.03Q38.28 13.09 38.12 13.09L38.12 13.09L36.29 13.09Z"></path></g><!----><g data-v-423bf9ae="" id="169b1565-bd45-4ccb-aa14-07806fae3c3a" transform="matrix(1.5791417199936628,0,0,1.5791417199936628,-16.520525790689135,-33.436323035800655)" stroke="none" fill="#E02917"><path d="M35.28 43.132l11.412 11.412-7.143 7.143-11.412-11.411z"></path><path d="M89.23 76.358c-3.574-4.658-5.395-7.166-5.395-7.166l3.188-3.188a2.498 2.498 0 0 0 0-3.536l-14.412-14.41-4.955 4.957-2.496-2.496 4.914-4.997-2.611-2.611a2.478 2.478 0 0 0-.459-.354 3.741 3.741 0 0 0-4.855.366l-2.293 2.293-15.364-15.365 1.785-1.785a2.5 2.5 0 1 0-3.535-3.536l-8.529 8.53-.16-7.841a3.75 3.75 0 1 0-7.498.127l.289 15.082-4.277 4.277 3.535 3.535 14.855-14.855 2.035 2.035-5.795 5.795 11.412 11.412 5.795-5.795 1.916 1.917-17.404 17.406-18.148-18.146a3.749 3.749 0 0 0-5.303 0l-3.939 3.939a3.751 3.751 0 0 0 5.305 5.303l1.287-1.287L36.264 74.11a3.752 3.752 0 0 0 5.304 0l20.055-20.057 2.498 2.496-4.889 4.887 14.41 14.412a2.505 2.505 0 0 0 3.538 0l3.119-3.121s3.453 2.521 7.164 5.398c.545.422 1.279.488 1.768 0s.421-1.22-.001-1.767z"></path></g><!----></svg>